<?xml version="1.0" encoding="iso-8859-1"?>
<!-- Uploaded to: SVG Repo, www.svgrepo.com, Generator: SVG Repo Mixer Tools -->
<svg fill="#000000" version="1.1" id="Layer_1" xmlns="http://www.w3.org/2000/svg" xmlns:xlink="http://www.w3.org/1999/xlink" 
	 viewBox="0 0 512 512" xml:space="preserve">
<g>
	<g>
		<path d="M376.416,314.384l125.157-125.158l-21.507-21.507L354.909,292.877l-18.594-18.594l-33.266,33.266l-8.344-8.344
			l-8.854-8.854l-21.507,21.507l8.854,8.854L157.294,436.616L232.678,512l115.904-115.905l8.854,8.854l21.507-21.507l-17.198-17.198
			l33.266-33.266L376.416,314.384z M232.677,468.986l-32.369-32.37l94.396-94.396l32.37,32.37L232.677,468.986z M340.237,344.737
			l-7.84-7.84l-7.841-7.841l11.759-11.759l15.681,15.681L340.237,344.737z"/>
	</g>
</g>
<g>
	<g>
		
			<rect x="205.403" y="390.395" transform="matrix(0.7071 -0.7071 0.7071 0.7071 -209.5706 305.2584)" width="116.583" height="30.416"/>
	</g>
</g>
<g>
	<g>
		<path d="M373.177,64.889l-27.858,27.859l-9.642-3.299l-3.299-9.641l27.859-27.859L308.287,0l-63.518,63.518l11.924,35.198
			l-147.55,147.551l-35.198-11.924L10.427,297.86l51.951,51.95l27.859-27.859l9.641,3.299l3.299,9.641l-27.86,27.859l51.951,51.951
			l63.518-63.518l-11.924-35.199l147.55-147.551l35.198,11.924l63.517-63.518L373.177,64.889z M353.465,145.486l-35.198-11.924
			L143.988,307.841l11.924,35.198l-28.646,28.647l-8.935-8.935l19.763-19.762l-14.267-41.688l-41.688-14.266l-19.762,19.761
			l-8.935-8.935l28.646-28.646l35.198,11.924l174.279-174.279l-11.924-35.198l28.646-28.646l8.935,8.935l-19.763,19.762
			l14.267,41.688l41.688,14.267l19.762-19.763l8.935,8.935L353.465,145.486z"/>
	</g>
</g>
</svg>